<mxfile host="app.diagrams.net" modified="2021-06-02T17:53:54.652Z" agent="5.0 (Windows NT 10.0; Win64; x64) AppleWebKit/537.36 (KHTML, like Gecko) Chrome/90.0.4430.212 Safari/537.36" etag="donE-k5iZQmvY2u4jQeF" version="14.7.2" type="github">
  <diagram id="5P74kh_oxJAOAwm8A3kO" name="Page-1">
    <mxGraphModel dx="1422" dy="762" grid="1" gridSize="10" guides="1" tooltips="1" connect="1" arrows="1" fold="1" page="1" pageScale="1" pageWidth="1169" pageHeight="827" math="0" shadow="0">
      <root>
        <mxCell id="0" />
        <mxCell id="1" parent="0" />
        <mxCell id="XXVCzD4Wfb_KxAH5IpnT-40" value="" style="rounded=0;whiteSpace=wrap;html=1;dashed=1;" vertex="1" parent="1">
          <mxGeometry x="150" y="60" width="740" height="440" as="geometry" />
        </mxCell>
        <mxCell id="XXVCzD4Wfb_KxAH5IpnT-27" style="edgeStyle=orthogonalEdgeStyle;rounded=0;orthogonalLoop=1;jettySize=auto;html=1;entryX=0.5;entryY=1;entryDx=0;entryDy=0;entryPerimeter=0;" edge="1" parent="1" source="XXVCzD4Wfb_KxAH5IpnT-1" target="XXVCzD4Wfb_KxAH5IpnT-11">
          <mxGeometry relative="1" as="geometry" />
        </mxCell>
        <mxCell id="XXVCzD4Wfb_KxAH5IpnT-31" style="edgeStyle=orthogonalEdgeStyle;rounded=0;orthogonalLoop=1;jettySize=auto;html=1;entryX=1;entryY=0.551;entryDx=0;entryDy=0;entryPerimeter=0;" edge="1" parent="1" source="XXVCzD4Wfb_KxAH5IpnT-1" target="XXVCzD4Wfb_KxAH5IpnT-16">
          <mxGeometry relative="1" as="geometry" />
        </mxCell>
        <mxCell id="XXVCzD4Wfb_KxAH5IpnT-32" value="[proximitydetected]" style="edgeLabel;html=1;align=center;verticalAlign=middle;resizable=0;points=[];fontColor=#4D9900;" vertex="1" connectable="0" parent="XXVCzD4Wfb_KxAH5IpnT-31">
          <mxGeometry x="0.2737" y="-4" relative="1" as="geometry">
            <mxPoint as="offset" />
          </mxGeometry>
        </mxCell>
        <mxCell id="XXVCzD4Wfb_KxAH5IpnT-1" value="Event Processor" style="rounded=0;whiteSpace=wrap;html=1;strokeColor=#82b366;fillColor=#FFB570;" vertex="1" parent="1">
          <mxGeometry x="740" y="266" width="120" height="60" as="geometry" />
        </mxCell>
        <mxCell id="XXVCzD4Wfb_KxAH5IpnT-2" value="Monitor.UI" style="rounded=0;whiteSpace=wrap;html=1;fillColor=#f5f5f5;strokeColor=#666666;fontColor=#333333;" vertex="1" parent="1">
          <mxGeometry x="170" y="416" width="120" height="60" as="geometry" />
        </mxCell>
        <mxCell id="XXVCzD4Wfb_KxAH5IpnT-20" style="edgeStyle=orthogonalEdgeStyle;rounded=0;orthogonalLoop=1;jettySize=auto;html=1;" edge="1" parent="1" source="XXVCzD4Wfb_KxAH5IpnT-3">
          <mxGeometry relative="1" as="geometry">
            <mxPoint x="505" y="296" as="targetPoint" />
          </mxGeometry>
        </mxCell>
        <mxCell id="XXVCzD4Wfb_KxAH5IpnT-21" value="[memberlocationrecorded]" style="edgeLabel;html=1;align=center;verticalAlign=middle;resizable=0;points=[];fontColor=#FF8000;" vertex="1" connectable="0" parent="XXVCzD4Wfb_KxAH5IpnT-20">
          <mxGeometry x="-0.2952" y="1" relative="1" as="geometry">
            <mxPoint x="26" y="-10" as="offset" />
          </mxGeometry>
        </mxCell>
        <mxCell id="XXVCzD4Wfb_KxAH5IpnT-30" style="edgeStyle=orthogonalEdgeStyle;rounded=0;orthogonalLoop=1;jettySize=auto;html=1;entryX=0;entryY=0.5;entryDx=0;entryDy=0;exitX=0.5;exitY=0;exitDx=0;exitDy=0;" edge="1" parent="1" source="XXVCzD4Wfb_KxAH5IpnT-3" target="XXVCzD4Wfb_KxAH5IpnT-4">
          <mxGeometry relative="1" as="geometry">
            <Array as="points">
              <mxPoint x="230" y="206" />
            </Array>
          </mxGeometry>
        </mxCell>
        <mxCell id="XXVCzD4Wfb_KxAH5IpnT-3" value="LocationReporter.API" style="rounded=0;whiteSpace=wrap;html=1;fillColor=#d5e8d4;strokeColor=#82b366;" vertex="1" parent="1">
          <mxGeometry x="170" y="266" width="120" height="60" as="geometry" />
        </mxCell>
        <mxCell id="XXVCzD4Wfb_KxAH5IpnT-29" style="edgeStyle=orthogonalEdgeStyle;rounded=0;orthogonalLoop=1;jettySize=auto;html=1;entryX=0.5;entryY=1;entryDx=0;entryDy=0;entryPerimeter=0;" edge="1" parent="1" source="XXVCzD4Wfb_KxAH5IpnT-4" target="XXVCzD4Wfb_KxAH5IpnT-10">
          <mxGeometry relative="1" as="geometry" />
        </mxCell>
        <mxCell id="XXVCzD4Wfb_KxAH5IpnT-4" value="TeamService.API" style="rounded=0;whiteSpace=wrap;html=1;fillColor=#d5e8d4;strokeColor=#82b366;" vertex="1" parent="1">
          <mxGeometry x="330" y="176" width="120" height="60" as="geometry" />
        </mxCell>
        <mxCell id="XXVCzD4Wfb_KxAH5IpnT-35" style="edgeStyle=orthogonalEdgeStyle;rounded=0;orthogonalLoop=1;jettySize=auto;html=1;entryX=1;entryY=0.617;entryDx=0;entryDy=0;entryPerimeter=0;exitX=0;exitY=0.75;exitDx=0;exitDy=0;" edge="1" parent="1" source="XXVCzD4Wfb_KxAH5IpnT-5" target="XXVCzD4Wfb_KxAH5IpnT-2">
          <mxGeometry relative="1" as="geometry" />
        </mxCell>
        <mxCell id="XXVCzD4Wfb_KxAH5IpnT-36" value="[proximitynotification]" style="edgeLabel;html=1;align=center;verticalAlign=middle;resizable=0;points=[];" vertex="1" connectable="0" parent="XXVCzD4Wfb_KxAH5IpnT-35">
          <mxGeometry x="-0.2658" y="-1" relative="1" as="geometry">
            <mxPoint x="24" y="12" as="offset" />
          </mxGeometry>
        </mxCell>
        <mxCell id="XXVCzD4Wfb_KxAH5IpnT-5" value="ProximityMonitor" style="rounded=0;whiteSpace=wrap;html=1;strokeColor=#82b366;fillColor=#FFB570;" vertex="1" parent="1">
          <mxGeometry x="740" y="384" width="120" height="60" as="geometry" />
        </mxCell>
        <mxCell id="XXVCzD4Wfb_KxAH5IpnT-37" style="edgeStyle=orthogonalEdgeStyle;rounded=0;orthogonalLoop=1;jettySize=auto;html=1;entryX=0.5;entryY=1;entryDx=0;entryDy=0;" edge="1" parent="1" source="XXVCzD4Wfb_KxAH5IpnT-6" target="XXVCzD4Wfb_KxAH5IpnT-8">
          <mxGeometry relative="1" as="geometry" />
        </mxCell>
        <mxCell id="XXVCzD4Wfb_KxAH5IpnT-6" value="Kibana" style="rounded=0;whiteSpace=wrap;html=1;fillColor=#ffe6cc;strokeColor=#d79b00;" vertex="1" parent="1">
          <mxGeometry x="580" y="620" width="120" height="60" as="geometry" />
        </mxCell>
        <mxCell id="XXVCzD4Wfb_KxAH5IpnT-38" style="edgeStyle=orthogonalEdgeStyle;rounded=0;orthogonalLoop=1;jettySize=auto;html=1;entryX=0.5;entryY=1;entryDx=0;entryDy=0;" edge="1" parent="1" source="XXVCzD4Wfb_KxAH5IpnT-7" target="XXVCzD4Wfb_KxAH5IpnT-9">
          <mxGeometry relative="1" as="geometry" />
        </mxCell>
        <mxCell id="XXVCzD4Wfb_KxAH5IpnT-7" value="Grafana" style="rounded=0;whiteSpace=wrap;html=1;fillColor=#ffe6cc;strokeColor=#d79b00;" vertex="1" parent="1">
          <mxGeometry x="420" y="620" width="120" height="60" as="geometry" />
        </mxCell>
        <mxCell id="XXVCzD4Wfb_KxAH5IpnT-8" value="ElasticSearch" style="rounded=0;whiteSpace=wrap;html=1;fillColor=#ffe6cc;strokeColor=#d79b00;" vertex="1" parent="1">
          <mxGeometry x="580" y="520" width="120" height="60" as="geometry" />
        </mxCell>
        <mxCell id="XXVCzD4Wfb_KxAH5IpnT-9" value="Prometheus" style="rounded=0;whiteSpace=wrap;html=1;fillColor=#ffe6cc;strokeColor=#d79b00;" vertex="1" parent="1">
          <mxGeometry x="420" y="520" width="120" height="60" as="geometry" />
        </mxCell>
        <mxCell id="XXVCzD4Wfb_KxAH5IpnT-10" value="TeamMonitoring" style="shape=cylinder3;whiteSpace=wrap;html=1;boundedLbl=1;backgroundOutline=1;size=15;fillColor=#dae8fc;strokeColor=#6c8ebf;" vertex="1" parent="1">
          <mxGeometry x="360" y="70" width="60" height="60" as="geometry" />
        </mxCell>
        <mxCell id="XXVCzD4Wfb_KxAH5IpnT-11" value="Location" style="shape=cylinder3;whiteSpace=wrap;html=1;boundedLbl=1;backgroundOutline=1;size=15;fillColor=#f8cecc;strokeColor=#b85450;" vertex="1" parent="1">
          <mxGeometry x="770" y="176" width="60" height="50" as="geometry" />
        </mxCell>
        <mxCell id="XXVCzD4Wfb_KxAH5IpnT-15" style="edgeStyle=orthogonalEdgeStyle;rounded=0;orthogonalLoop=1;jettySize=auto;html=1;entryX=0;entryY=0.5;entryDx=0;entryDy=0;" edge="1" parent="1" source="XXVCzD4Wfb_KxAH5IpnT-12" target="XXVCzD4Wfb_KxAH5IpnT-2">
          <mxGeometry relative="1" as="geometry" />
        </mxCell>
        <mxCell id="XXVCzD4Wfb_KxAH5IpnT-12" value="User" style="shape=umlActor;verticalLabelPosition=bottom;verticalAlign=top;html=1;outlineConnect=0;" vertex="1" parent="1">
          <mxGeometry x="50" y="416" width="30" height="60" as="geometry" />
        </mxCell>
        <mxCell id="XXVCzD4Wfb_KxAH5IpnT-14" style="edgeStyle=orthogonalEdgeStyle;rounded=0;orthogonalLoop=1;jettySize=auto;html=1;" edge="1" parent="1" source="XXVCzD4Wfb_KxAH5IpnT-13" target="XXVCzD4Wfb_KxAH5IpnT-3">
          <mxGeometry relative="1" as="geometry" />
        </mxCell>
        <mxCell id="XXVCzD4Wfb_KxAH5IpnT-13" value="User" style="shape=umlActor;verticalLabelPosition=bottom;verticalAlign=top;html=1;outlineConnect=0;" vertex="1" parent="1">
          <mxGeometry x="50" y="266" width="30" height="60" as="geometry" />
        </mxCell>
        <mxCell id="XXVCzD4Wfb_KxAH5IpnT-25" style="edgeStyle=orthogonalEdgeStyle;rounded=0;orthogonalLoop=1;jettySize=auto;html=1;entryX=0;entryY=0.75;entryDx=0;entryDy=0;" edge="1" parent="1" target="XXVCzD4Wfb_KxAH5IpnT-1">
          <mxGeometry relative="1" as="geometry">
            <mxPoint x="540" y="311" as="sourcePoint" />
          </mxGeometry>
        </mxCell>
        <mxCell id="XXVCzD4Wfb_KxAH5IpnT-26" value="[memberlocationreported]" style="edgeLabel;html=1;align=center;verticalAlign=middle;resizable=0;points=[];fontColor=#CC6600;" vertex="1" connectable="0" parent="XXVCzD4Wfb_KxAH5IpnT-25">
          <mxGeometry x="-0.2862" y="-3" relative="1" as="geometry">
            <mxPoint x="20" y="5" as="offset" />
          </mxGeometry>
        </mxCell>
        <mxCell id="XXVCzD4Wfb_KxAH5IpnT-33" style="edgeStyle=orthogonalEdgeStyle;rounded=0;orthogonalLoop=1;jettySize=auto;html=1;entryX=0;entryY=0.5;entryDx=0;entryDy=0;exitX=0.925;exitY=0.827;exitDx=0;exitDy=0;exitPerimeter=0;" edge="1" parent="1" source="XXVCzD4Wfb_KxAH5IpnT-16" target="XXVCzD4Wfb_KxAH5IpnT-5">
          <mxGeometry relative="1" as="geometry" />
        </mxCell>
        <mxCell id="XXVCzD4Wfb_KxAH5IpnT-34" value="[proximitydetected]" style="edgeLabel;html=1;align=center;verticalAlign=middle;resizable=0;points=[];fontColor=#4D9900;" vertex="1" connectable="0" parent="XXVCzD4Wfb_KxAH5IpnT-33">
          <mxGeometry x="0.369" y="1" relative="1" as="geometry">
            <mxPoint x="-14" y="-23" as="offset" />
          </mxGeometry>
        </mxCell>
        <mxCell id="XXVCzD4Wfb_KxAH5IpnT-16" value="Service Bus" style="shape=cylinder3;whiteSpace=wrap;html=1;boundedLbl=1;backgroundOutline=1;size=15;fillColor=#fff2cc;strokeColor=#d6b656;" vertex="1" parent="1">
          <mxGeometry x="510" y="156" width="40" height="254" as="geometry" />
        </mxCell>
        <mxCell id="XXVCzD4Wfb_KxAH5IpnT-17" value="WebStatus" style="rounded=0;whiteSpace=wrap;html=1;fillColor=#f5f5f5;strokeColor=#666666;fontColor=#333333;" vertex="1" parent="1">
          <mxGeometry x="260" y="620" width="120" height="60" as="geometry" />
        </mxCell>
        <mxCell id="XXVCzD4Wfb_KxAH5IpnT-42" value="healthchecks" style="text;html=1;strokeColor=none;fillColor=none;align=center;verticalAlign=middle;whiteSpace=wrap;rounded=0;dashed=1;fontColor=#CC6600;" vertex="1" parent="1">
          <mxGeometry x="300" y="680" width="40" height="20" as="geometry" />
        </mxCell>
        <mxCell id="XXVCzD4Wfb_KxAH5IpnT-43" value="metrics" style="text;html=1;strokeColor=none;fillColor=none;align=center;verticalAlign=middle;whiteSpace=wrap;rounded=0;dashed=1;fontColor=#CC6600;" vertex="1" parent="1">
          <mxGeometry x="460" y="680" width="40" height="20" as="geometry" />
        </mxCell>
        <mxCell id="XXVCzD4Wfb_KxAH5IpnT-44" value="service" style="text;html=1;strokeColor=none;fillColor=none;align=center;verticalAlign=middle;whiteSpace=wrap;rounded=0;dashed=1;" vertex="1" parent="1">
          <mxGeometry x="990" y="75" width="40" height="20" as="geometry" />
        </mxCell>
        <mxCell id="XXVCzD4Wfb_KxAH5IpnT-45" value="" style="rounded=0;whiteSpace=wrap;html=1;dashed=1;fontColor=#CC6600;fillColor=#FFB570;" vertex="1" parent="1">
          <mxGeometry x="940" y="70" width="30" height="30" as="geometry" />
        </mxCell>
        <mxCell id="XXVCzD4Wfb_KxAH5IpnT-46" value="" style="rounded=0;whiteSpace=wrap;html=1;dashed=1;fillColor=#d5e8d4;strokeColor=#82b366;" vertex="1" parent="1">
          <mxGeometry x="940" y="110" width="30" height="30" as="geometry" />
        </mxCell>
        <mxCell id="XXVCzD4Wfb_KxAH5IpnT-47" value="" style="rounded=0;whiteSpace=wrap;html=1;dashed=1;fontColor=#333333;fillColor=#f5f5f5;strokeColor=#666666;" vertex="1" parent="1">
          <mxGeometry x="940" y="146" width="30" height="30" as="geometry" />
        </mxCell>
        <mxCell id="XXVCzD4Wfb_KxAH5IpnT-52" value="web api" style="text;html=1;strokeColor=none;fillColor=none;align=left;verticalAlign=middle;whiteSpace=wrap;rounded=0;dashed=1;" vertex="1" parent="1">
          <mxGeometry x="990" y="115" width="60" height="20" as="geometry" />
        </mxCell>
        <mxCell id="XXVCzD4Wfb_KxAH5IpnT-53" value="asp.net mvc" style="text;html=1;strokeColor=none;fillColor=none;align=left;verticalAlign=middle;whiteSpace=wrap;rounded=0;dashed=1;" vertex="1" parent="1">
          <mxGeometry x="990" y="146" width="80" height="20" as="geometry" />
        </mxCell>
        <mxCell id="XXVCzD4Wfb_KxAH5IpnT-54" value="redis" style="text;html=1;strokeColor=none;fillColor=none;align=left;verticalAlign=middle;whiteSpace=wrap;rounded=0;dashed=1;" vertex="1" parent="1">
          <mxGeometry x="990" y="191" width="40" height="20" as="geometry" />
        </mxCell>
        <mxCell id="XXVCzD4Wfb_KxAH5IpnT-55" value="rabbitmq" style="text;html=1;strokeColor=none;fillColor=none;align=left;verticalAlign=middle;whiteSpace=wrap;rounded=0;dashed=1;" vertex="1" parent="1">
          <mxGeometry x="990" y="301.5" width="60" height="20" as="geometry" />
        </mxCell>
        <mxCell id="XXVCzD4Wfb_KxAH5IpnT-56" value="" style="shape=cylinder3;whiteSpace=wrap;html=1;boundedLbl=1;backgroundOutline=1;size=15;fillColor=#fff2cc;strokeColor=#d6b656;" vertex="1" parent="1">
          <mxGeometry x="935" y="290" width="40" height="43" as="geometry" />
        </mxCell>
        <mxCell id="XXVCzD4Wfb_KxAH5IpnT-57" value="" style="shape=cylinder3;whiteSpace=wrap;html=1;boundedLbl=1;backgroundOutline=1;size=15;fillColor=#dae8fc;strokeColor=#6c8ebf;" vertex="1" parent="1">
          <mxGeometry x="935" y="236" width="40" height="43" as="geometry" />
        </mxCell>
        <mxCell id="XXVCzD4Wfb_KxAH5IpnT-58" value="" style="shape=cylinder3;whiteSpace=wrap;html=1;boundedLbl=1;backgroundOutline=1;size=15;fillColor=#f8cecc;strokeColor=#b85450;" vertex="1" parent="1">
          <mxGeometry x="935" y="183" width="40" height="43" as="geometry" />
        </mxCell>
        <mxCell id="XXVCzD4Wfb_KxAH5IpnT-59" value="sql server" style="text;html=1;strokeColor=none;fillColor=none;align=left;verticalAlign=middle;whiteSpace=wrap;rounded=0;dashed=1;" vertex="1" parent="1">
          <mxGeometry x="990" y="250" width="60" height="20" as="geometry" />
        </mxCell>
        <mxCell id="XXVCzD4Wfb_KxAH5IpnT-60" value="logging" style="text;html=1;strokeColor=none;fillColor=none;align=center;verticalAlign=middle;whiteSpace=wrap;rounded=0;dashed=1;fontColor=#CC6600;" vertex="1" parent="1">
          <mxGeometry x="620" y="680" width="40" height="20" as="geometry" />
        </mxCell>
      </root>
    </mxGraphModel>
  </diagram>
</mxfile>
